<?xml version="1.0" standalone="no"?>
<!DOCTYPE svg PUBLIC "-//W3C//DTD SVG 20010904//EN"
 "http://www.w3.org/TR/2001/REC-SVG-20010904/DTD/svg10.dtd">
<svg version="1.0" xmlns="http://www.w3.org/2000/svg"
 width="1024.000000pt" height="1024.000000pt" viewBox="0 0 1024.000000 1024.000000"
 preserveAspectRatio="xMidYMid meet">

<g transform="translate(0.000000,1024.000000) scale(0.100000,-0.100000)"
fill="#000000" stroke="none">
<path d="M0 5120 l0 -5120 5120 0 5120 0 0 5120 0 5120 -5120 0 -5120 0 0
-5120z m7269 1452 c-59 -180 -132 -403 -163 -497 -30 -93 -90 -278 -134 -410
-44 -132 -97 -292 -117 -355 -20 -63 -60 -182 -90 -265 -29 -82 -74 -222 -100
-310 -25 -88 -63 -207 -84 -265 -53 -142 -234 -693 -280 -850 l-8 -25 -283 0
-284 0 -104 305 c-57 168 -117 349 -133 404 -16 54 -34 106 -39 116 -12 22
-87 248 -105 315 -7 28 -47 149 -88 270 -41 121 -91 270 -110 330 -19 61 -59
171 -87 245 -28 74 -67 189 -87 255 -43 149 -61 202 -111 335 -22 58 -54 144
-72 193 l-33 87 -563 0 -564 0 -31 68 c-67 145 -159 361 -159 371 0 8 242 11
869 11 l870 0 35 -112 c19 -62 40 -135 47 -163 6 -27 15 -55 20 -60 4 -6 64
-179 133 -385 68 -206 151 -454 184 -550 33 -96 72 -215 87 -265 126 -426 309
-955 325 -938 10 10 244 714 305 918 43 143 184 574 211 646 33 89 145 431
199 609 24 80 56 180 72 222 24 66 31 78 53 80 14 2 138 2 276 0 l251 -3 -108
-327z m-2561 -1394 l-3 -1113 -29 -85 c-64 -190 -200 -315 -397 -366 -77 -20
-407 -29 -484 -14 -27 6 -75 15 -105 21 -137 27 -294 148 -355 273 -64 130
-68 159 -73 494 l-4 302 246 0 246 0 0 -216 c0 -190 2 -224 21 -284 34 -112
85 -145 226 -144 101 1 159 31 193 99 l25 50 3 1048 3 1047 245 0 245 0 -3
-1112z"/>
</g>
</svg>
